<mxfile host="Electron" agent="Mozilla/5.0 (Windows NT 10.0; Win64; x64) AppleWebKit/537.36 (KHTML, like Gecko) draw.io/24.7.17 Chrome/128.0.6613.36 Electron/32.0.1 Safari/537.36" version="24.7.17">
  <diagram name="Сторінка-1" id="LZamHaoazB5rqiR1tpYB">
    <mxGraphModel dx="954" dy="657" grid="1" gridSize="10" guides="1" tooltips="1" connect="1" arrows="1" fold="1" page="1" pageScale="1" pageWidth="827" pageHeight="1169" math="0" shadow="0">
      <root>
        <mxCell id="0" />
        <mxCell id="1" parent="0" />
        <mxCell id="8F4TE2KgHnT_wH65IAdx-3" value="" style="edgeStyle=orthogonalEdgeStyle;rounded=0;orthogonalLoop=1;jettySize=auto;html=1;" parent="1" source="8F4TE2KgHnT_wH65IAdx-1" target="8F4TE2KgHnT_wH65IAdx-2" edge="1">
          <mxGeometry relative="1" as="geometry" />
        </mxCell>
        <mxCell id="8F4TE2KgHnT_wH65IAdx-1" value="&lt;font style=&quot;font-size: 20px;&quot;&gt;start&lt;/font&gt;" style="ellipse;whiteSpace=wrap;html=1;" parent="1" vertex="1">
          <mxGeometry x="354" y="30" width="120" height="80" as="geometry" />
        </mxCell>
        <mxCell id="8F4TE2KgHnT_wH65IAdx-7" value="" style="edgeStyle=orthogonalEdgeStyle;rounded=0;orthogonalLoop=1;jettySize=auto;html=1;" parent="1" source="8F4TE2KgHnT_wH65IAdx-2" target="8F4TE2KgHnT_wH65IAdx-6" edge="1">
          <mxGeometry relative="1" as="geometry" />
        </mxCell>
        <mxCell id="8F4TE2KgHnT_wH65IAdx-2" value="&lt;font style=&quot;font-size: 20px;&quot;&gt;const double x = 1.82&lt;/font&gt;" style="whiteSpace=wrap;html=1;" parent="1" vertex="1">
          <mxGeometry x="306" y="200" width="216" height="60" as="geometry" />
        </mxCell>
        <mxCell id="8F4TE2KgHnT_wH65IAdx-9" value="" style="edgeStyle=orthogonalEdgeStyle;rounded=0;orthogonalLoop=1;jettySize=auto;html=1;" parent="1" source="8F4TE2KgHnT_wH65IAdx-6" target="8F4TE2KgHnT_wH65IAdx-8" edge="1">
          <mxGeometry relative="1" as="geometry" />
        </mxCell>
        <mxCell id="8F4TE2KgHnT_wH65IAdx-6" value="&lt;font style=&quot;font-size: 20px;&quot;&gt;const double y = 18.5&lt;/font&gt;" style="whiteSpace=wrap;html=1;" parent="1" vertex="1">
          <mxGeometry x="306" y="340" width="216" height="60" as="geometry" />
        </mxCell>
        <mxCell id="8F4TE2KgHnT_wH65IAdx-11" value="" style="edgeStyle=orthogonalEdgeStyle;rounded=0;orthogonalLoop=1;jettySize=auto;html=1;" parent="1" source="8F4TE2KgHnT_wH65IAdx-8" target="8F4TE2KgHnT_wH65IAdx-10" edge="1">
          <mxGeometry relative="1" as="geometry" />
        </mxCell>
        <mxCell id="8F4TE2KgHnT_wH65IAdx-8" value="&lt;font style=&quot;font-size: 20px;&quot;&gt;const double z = - 3.4&lt;/font&gt;" style="whiteSpace=wrap;html=1;" parent="1" vertex="1">
          <mxGeometry x="306" y="480" width="216" height="60" as="geometry" />
        </mxCell>
        <mxCell id="8F4TE2KgHnT_wH65IAdx-13" value="" style="edgeStyle=orthogonalEdgeStyle;rounded=0;orthogonalLoop=1;jettySize=auto;html=1;" parent="1" source="8F4TE2KgHnT_wH65IAdx-10" target="8F4TE2KgHnT_wH65IAdx-12" edge="1">
          <mxGeometry relative="1" as="geometry" />
        </mxCell>
        <mxCell id="8F4TE2KgHnT_wH65IAdx-10" value="&lt;font style=&quot;font-size: 20px;&quot;&gt;double gamma =&amp;nbsp;&lt;/font&gt;&lt;div&gt;&lt;font style=&quot;font-size: 20px;&quot;&gt;fabs(pow(x, y/x)-pow(y/x,1/3))&lt;/font&gt;&lt;/div&gt;" style="whiteSpace=wrap;html=1;" parent="1" vertex="1">
          <mxGeometry x="270" y="620" width="288" height="90" as="geometry" />
        </mxCell>
        <mxCell id="8F4TE2KgHnT_wH65IAdx-17" value="" style="edgeStyle=orthogonalEdgeStyle;rounded=0;orthogonalLoop=1;jettySize=auto;html=1;" parent="1" source="8F4TE2KgHnT_wH65IAdx-12" target="8F4TE2KgHnT_wH65IAdx-16" edge="1">
          <mxGeometry relative="1" as="geometry" />
        </mxCell>
        <mxCell id="8F4TE2KgHnT_wH65IAdx-12" value="&lt;font style=&quot;font-size: 20px;&quot;&gt;double fi =&lt;/font&gt;&lt;div&gt;&lt;font style=&quot;font-size: 20px;&quot;&gt;=((x-y)*y-(z/(x-y))) / (1+ pow(y-x,2))&lt;/font&gt;&lt;/div&gt;" style="whiteSpace=wrap;html=1;" parent="1" vertex="1">
          <mxGeometry x="239" y="789" width="350" height="90" as="geometry" />
        </mxCell>
        <mxCell id="8F4TE2KgHnT_wH65IAdx-19" value="" style="edgeStyle=orthogonalEdgeStyle;rounded=0;orthogonalLoop=1;jettySize=auto;html=1;" parent="1" source="8F4TE2KgHnT_wH65IAdx-16" target="8F4TE2KgHnT_wH65IAdx-18" edge="1">
          <mxGeometry relative="1" as="geometry" />
        </mxCell>
        <mxCell id="8F4TE2KgHnT_wH65IAdx-16" value="&lt;div style=&quot;font-family: Consolas, &amp;quot;Courier New&amp;quot;, monospace; line-height: 19px; white-space: pre;&quot;&gt;&lt;font style=&quot;font-size: 20px;&quot;&gt;cout &amp;lt;&amp;lt; &quot;gamma = &quot; &amp;lt;&amp;lt; gamma &amp;lt;&amp;lt; &quot;\t fi = &quot; &amp;lt;&amp;lt; fi&lt;/font&gt;&lt;/div&gt;" style="shape=parallelogram;perimeter=parallelogramPerimeter;whiteSpace=wrap;html=1;fixedSize=1;" parent="1" vertex="1">
          <mxGeometry x="129" y="974" width="569" height="60" as="geometry" />
        </mxCell>
        <mxCell id="8F4TE2KgHnT_wH65IAdx-18" value="&lt;font style=&quot;font-size: 20px;&quot;&gt;end&lt;/font&gt;" style="ellipse;whiteSpace=wrap;html=1;" parent="1" vertex="1">
          <mxGeometry x="374" y="1104" width="80" height="46" as="geometry" />
        </mxCell>
      </root>
    </mxGraphModel>
  </diagram>
</mxfile>
